<svg width="181" height="181" viewBox="0 0 181 181" fill="none" xmlns="http://www.w3.org/2000/svg">
<g clip-path="url(#clip0_80_183635)">
<path d="M39.6334 28.72L39.6184 28.7192L39.6033 28.719C38.8545 28.7095 38.1273 28.467 37.5226 28.0253C36.9179 27.5836 36.4658 26.9645 36.229 26.2541C35.9922 25.5437 35.9824 24.7771 36.2012 24.0609C36.4185 23.3494 36.8506 22.7226 37.438 22.2664C52.9083 11.3259 71.5371 5.75475 90.4742 6.40569L90.4871 6.40613H90.5C105.49 6.40613 126.905 8.94733 143.797 21.0846L143.797 21.0849C144.57 21.6397 145.093 22.4777 145.251 23.4162C145.408 24.352 145.19 25.3119 144.645 26.088C144.073 26.8552 143.224 27.3682 142.278 27.517C141.33 27.6663 140.361 27.4372 139.58 26.879L139.563 26.8672L139.546 26.8563C124.92 17.561 107.817 12.9245 90.4989 13.5597C73.1986 12.9777 56.1766 18.0272 41.992 27.9494L41.973 27.9627L41.9548 27.9772C41.2978 28.5001 40.472 28.7644 39.6334 28.72Z" fill="#B40000" fill-opacity="0.4" stroke="white" stroke-width="1.5"/>
<path d="M156.725 67.0462L156.724 67.0451C151.8 60.0996 144.914 51.9647 134.408 45.5707C123.897 39.1742 109.807 34.5463 90.5095 34.5448C77.6412 34.2223 64.8853 37.0122 53.3265 42.6773C41.7648 48.3438 31.743 56.7192 24.1137 67.091L24.1131 67.0918C23.5513 67.8577 22.7099 68.3709 21.7718 68.52C20.8337 68.669 19.8747 68.4418 19.1032 67.8878L19.1032 67.8877L19.0941 67.8814C18.6905 67.6005 18.3496 67.2388 18.0932 66.8191C17.8368 66.3995 17.6703 65.9312 17.6045 65.4439C17.5386 64.9565 17.5748 64.4608 17.7106 63.9882C17.8465 63.5156 18.0791 63.0763 18.3937 62.6984L18.4074 62.6819L18.4201 62.6648C26.7275 51.4423 37.6097 42.3802 50.1506 36.2415C62.6915 30.1028 76.5238 27.0673 90.4827 27.3905L90.4914 27.3907H90.5001C122.007 27.3907 145.526 39.0528 162.513 62.9328C163.056 63.7152 163.267 64.6806 163.1 65.6183C162.934 66.5563 162.403 67.3902 161.623 67.9379C161.046 68.3376 160.367 68.5654 159.665 68.5953C159.091 68.5873 158.526 68.4442 158.017 68.1775C157.503 67.9082 157.06 67.5204 156.725 67.0462Z" fill="#B40000" fill-opacity="0.4" stroke="white" stroke-width="1.5"/>
<path d="M69.5444 174.599L69.5037 174.594L69.4627 174.594C68.7344 174.59 68.0238 174.369 67.4217 173.96C66.8195 173.55 66.3533 172.97 66.0825 172.294L66.0797 172.287L66.0767 172.28C65.8905 171.841 65.796 171.369 65.7992 170.892C65.8023 170.416 65.9029 169.945 66.0948 169.509C66.2867 169.073 66.5659 168.68 66.9151 168.356C67.2643 168.032 67.6762 167.782 68.1254 167.623L68.1348 167.62L68.1442 167.616C93.0847 158.028 108.207 138.339 108.219 114.85C108.391 112.48 108.052 110.101 107.225 107.873C106.394 105.636 105.091 103.605 103.404 101.918C101.717 100.231 99.686 98.928 97.4495 98.0975C95.2217 97.2702 92.8423 96.9313 90.4723 97.1035C85.0861 97.1085 80.9584 98.5663 78.0211 101.843C75.1073 105.092 73.4701 110.019 72.7852 116.726L72.7851 116.726C72.1735 122.75 69.2509 128.302 64.6315 132.217C60.012 136.131 54.0553 138.102 48.0128 137.717L47.9835 137.715L47.9541 137.715C44.7046 137.763 41.4809 137.133 38.4883 135.865C35.4958 134.598 32.8 132.721 30.5726 130.355C28.3453 127.988 26.6353 125.184 25.5515 122.12C24.4678 119.056 24.034 115.8 24.2779 112.56L24.2795 112.538L24.2799 112.517C24.5889 95.2267 31.7243 78.761 44.1288 66.7126C56.5334 54.6643 73.2 48.0116 90.4916 48.2063V48.2064L90.5 48.2064C108.235 48.2061 125.249 55.2244 137.827 67.7282C150.401 80.2287 157.518 97.1962 157.625 114.926C157.227 127.455 154.585 139.811 149.823 151.406C149.44 152.267 148.739 152.947 147.867 153.305C146.994 153.663 146.016 153.67 145.137 153.325C144.705 153.146 144.313 152.884 143.982 152.553C143.651 152.22 143.388 151.826 143.21 151.392C143.032 150.957 142.942 150.492 142.945 150.023C142.948 149.553 143.044 149.089 143.228 148.657L143.228 148.657L143.232 148.647C147.609 137.933 150.059 126.529 150.47 114.962L150.471 114.947L150.471 114.932C150.395 99.0864 144.04 83.9174 132.797 72.7505C121.557 61.5855 106.349 55.3321 90.5067 55.3604C82.8395 55.2096 75.2178 56.5722 68.0778 59.3702C60.9351 62.1691 54.4148 66.3495 48.8901 71.672C43.3654 76.9945 38.9448 83.3544 35.8815 90.3877C32.8226 97.4111 31.1771 104.968 31.0388 112.627C30.8017 114.923 31.051 117.242 31.7707 119.435C32.4939 121.638 33.6754 123.663 35.2377 125.376C36.7999 127.089 38.7074 128.453 40.8345 129.376C42.9488 130.293 45.2324 130.755 47.5366 130.731C49.6585 130.937 51.8002 130.723 53.8396 130.101C55.8924 129.476 57.801 128.449 59.455 127.082C61.1091 125.715 62.4759 124.033 63.4765 122.135C64.4756 120.239 65.0898 118.165 65.2839 116.031C66.2918 107.335 68.9236 100.887 73.0724 96.6156C77.2073 92.3584 82.9351 90.1757 90.3303 90.1757H90.3493L90.3682 90.1748C93.6854 90.0071 97.0006 90.5407 100.098 91.7407C103.195 92.9406 106.004 94.7801 108.342 97.139C110.681 99.4979 112.495 102.323 113.668 105.431C114.84 108.538 115.345 111.858 115.148 115.174L115.147 115.196V115.218C115.147 141.639 98.4557 163.884 70.4705 174.609C70.1624 174.638 69.852 174.634 69.5444 174.599Z" fill="#B40000" stroke="white" stroke-width="1.5"/>
<path d="M109.41 164.564L109.417 164.558L109.423 164.552C122.282 151.222 129.525 133.46 129.656 114.94V114.935C129.656 110.47 128.973 100.902 123.79 92.4274C118.572 83.8949 108.852 76.5742 91.0221 76.5706C85.8006 76.3887 80.5951 77.2476 75.7086 79.0973C70.8181 80.9486 66.3453 83.7553 62.551 87.3536L62.5453 87.3591L62.5396 87.3647C59.1378 90.7304 56.4485 94.7466 54.632 99.1738C52.8167 103.598 51.9101 108.342 51.9661 113.124C51.9515 114.069 51.5665 114.97 50.8939 115.634L51.4207 116.168L50.8939 115.634C50.2191 116.3 49.3091 116.674 48.3609 116.673V116.673L48.351 116.674C47.8811 116.68 47.4146 116.592 46.9786 116.417L46.6984 117.113L46.9786 116.417C46.5426 116.241 46.1459 115.981 45.8114 115.651C45.4769 115.321 45.2113 114.927 45.0301 114.494C44.8488 114.06 44.7555 113.595 44.7555 113.125H44.7556L44.7555 113.113C44.6688 107.418 45.7153 101.762 47.834 96.4751C49.9514 91.1912 53.0974 86.3806 57.0894 82.3228C61.5225 78.0699 66.7556 74.7391 72.4855 72.5235C78.2187 70.3067 84.3351 69.2505 90.4797 69.4163L90.4898 69.4166H90.4999C107.494 69.4166 118.925 75.5558 126.122 84.2608C133.338 92.9896 136.357 104.373 136.357 114.934C136.284 135.143 128.463 154.554 114.506 169.169L114.484 169.192L114.463 169.217C114.143 169.616 113.74 169.939 113.281 170.164C112.827 170.387 112.329 170.509 111.823 170.521C110.929 170.503 110.07 170.174 109.394 169.59C109.069 169.264 108.81 168.877 108.632 168.451C108.452 168.019 108.359 167.554 108.359 167.085C108.359 166.616 108.452 166.152 108.632 165.719C108.813 165.287 109.077 164.894 109.41 164.564Z" fill="#B40000" fill-opacity="0.4" stroke="white" stroke-width="1.5"/>
<path d="M40.1595 156.395C43.0891 156.728 46.0348 156.897 48.9832 156.904L40.1595 156.395ZM40.1595 156.395C39.5949 156.332 39.0484 156.158 38.551 155.884M40.1595 156.395L38.551 155.884M38.551 155.884C38.0536 155.61 37.6151 155.24 37.2606 154.796M38.551 155.884L37.2606 154.796M37.2606 154.796C36.9061 154.352 36.6424 153.843 36.4847 153.297M37.2606 154.796L36.4847 153.297M36.4847 153.297C36.327 152.752 36.2784 152.18 36.3415 151.616M36.4847 153.297L36.3415 151.616M36.3415 151.616C36.4046 151.051 36.5783 150.505 36.8527 150.007M36.3415 151.616L36.8527 150.007M36.8527 150.007C37.1271 149.51 37.4967 149.071 37.9405 148.717L36.8527 150.007ZM49.017 156.155L49.001 156.154L48.985 156.154C46.0642 156.148 43.1461 155.979 40.244 155.65L40.2428 155.65C39.7762 155.598 39.3244 155.454 38.9133 155.227C38.5021 155.001 38.1397 154.695 37.8466 154.328C37.5535 153.961 37.3356 153.54 37.2053 153.089C37.0749 152.638 37.0347 152.166 37.0869 151.699C37.139 151.233 37.2826 150.781 37.5094 150.37C37.7362 149.958 38.0418 149.596 38.4086 149.303C38.7755 149.01 39.1965 148.792 39.6476 148.662C40.0985 148.531 40.5707 148.491 41.0372 148.543C55.2431 150.141 66.5613 147.644 74.6341 140.907L74.6439 140.899L74.6535 140.891C78.353 137.582 81.3447 133.559 83.4484 129.064C85.5513 124.571 86.7234 119.698 86.8941 114.74C86.9178 114.27 87.0361 113.81 87.242 113.388C87.4486 112.963 87.7391 112.585 88.096 112.276C88.4529 111.967 88.8687 111.734 89.3183 111.59C89.7679 111.446 90.2421 111.395 90.712 111.439L90.712 111.44L90.7259 111.441C91.6722 111.513 92.5536 111.95 93.1842 112.659C93.8148 113.369 94.1453 114.295 94.106 115.243L94.106 115.245C93.8717 121.193 92.4295 127.031 89.8673 132.404C87.308 137.771 83.6847 142.562 79.2175 146.485C70.6306 153.215 59.9163 156.646 49.017 156.155Z" fill="#B40000" fill-opacity="0.4" stroke="white" stroke-width="1.5"/>
</g>
<defs>
<clipPath id="clip0_80_183635">
<rect width="181" height="181" fill="white"/>
</clipPath>
</defs>
</svg>
