<svg xmlns="
http://www.w3.org/2000/svg"
width="25.678" height="25.754" viewBox="0 0 25.678 25.754">
<g id="Modify_tenure" data-name="Modify tenure" transform="translate(1755.998 -10204.048)">
<g id="Group_18908" data-name="Group 18908" transform="translate(-1755.998 10204.048)">
<path id="Path_22637" data-name="Path 22637" d="M630.436,2267.807a6.212,6.212,0,0,0-.306-1.711,6.536,6.536,0,0,0-6.221-4.547H620.5c-.709,0-.758-.073-1.137-.574l-1.711-2.274a3.5,3.5,0,0,0-3.41-1.711h-2.848a5.4,5.4,0,0,0-5.4,5.4v12.5a6.547,6.547,0,0,0,6.539,6.54H623.9a6.547,6.547,0,0,0,6.539-6.54v-6.82A.992.992,0,0,0,630.436,2267.807Z" transform="translate(-605.99 -2256.99)" fill="#004a9a" opacity="0.3"/>
<path id="Path_22638" data-name="Path 22638" d="M619.932,2275.565a2.057,2.057,0,0,0,0,4.107h6.124a2.926,2.926,0,0,0,.464-5.818,3.42,3.42,0,1,0-6.551,1.711" transform="translate(-603.321 -2253.918)" fill="#004a9a"/>
</g>
</g>
</svg>